[Header]
FileType HTR
DataType HTRS
FileVersion 1
NumSegments 64
NumFrames 3
DataFrameRate 24
EulerRotationOrder ZYX
CalibrationUnits mm
RotationUnits Degrees
GlobalAxisofGravity Y
BoneLengthAxis Y
ScaleFactor 1.0
[SegmentNames&Hierarchy]
Hips	GLOBAL
Spine	Hips
Spine1	Spine
Spine2	Spine1
Neck	Spine2
Head	Neck
LeftEye	Head
RightEye	Head
LeftShoulder	Spine2
LeftArm	LeftShoulder
LeftForeArm	LeftArm
LeftHand	LeftForeArm
LeftHandThumb1	LeftHand
LeftHandThumb2	LeftHandThumb1
LeftHandThumb3	LeftHandThumb2
LeftHandThumb4	LeftHandThumb3
LeftHandIndex1	LeftHand
LeftHandIndex2	LeftHandIndex1
LeftHandIndex3	LeftHandIndex2
LeftHandIndex4	LeftHandIndex3
LeftHandMiddle1	LeftHand
LeftHandMiddle2	LeftHandMiddle1
LeftHandMiddle3	LeftHandMiddle2
LeftHandMiddle4	LeftHandMiddle3
LeftHandRing1	LeftHand
LeftHandRing2	LeftHandRing1
LeftHandRing3	LeftHandRing2
LeftHandRing4	LeftHandRing3
LeftHandPinky1	LeftHand
LeftHandPinky2	LeftHandPinky1
LeftHandPinky3	LeftHandPinky2
LeftHandPinky4	LeftHandPinky3
RightShoulder	Spine2
RightArm	RightShoulder
RightForeArm	RightArm
RightHand	RightForeArm
RightHandPinky1	RightHand
RightHandPinky2	RightHandPinky1
RightHandPinky3	RightHandPinky2
RightHandPinky4	RightHandPinky3
RightHandRing1	RightHand
RightHandRing2	RightHandRing1
RightHandRing3	RightHandRing2
RightHandRing4	RightHandRing3
RightHandMiddle1	RightHand
RightHandMiddle2	RightHandMiddle1
RightHandMiddle3	RightHandMiddle2
RightHandMiddle4	RightHandMiddle3
RightHandIndex1	RightHand
RightHandIndex2	RightHandIndex1
RightHandIndex3	RightHandIndex2
RightHandIndex4	RightHandIndex3
RightHandThumb1	RightHand
RightHandThumb2	RightHandThumb1
RightHandThumb3	RightHandThumb2
RightHandThumb4	RightHandThumb3
LeftUpLeg	Hips
LeftLeg	LeftUpLeg
LeftFoot	LeftLeg
LeftToeBase	LeftFoot
RightUpLeg	Hips
RightLeg	RightUpLeg
RightFoot	RightLeg
RightToeBase	RightFoot
[BasePosition]
Hips	0	0	0	0	0	0	1
Spine	0	0	0	0	0	0	1
Spine1	0	0	0	0	0	0	1
Spine2	0	0	0	0	0	0	1
Neck	0	0	0	0	0	0	1
Head	0	0	0	0	0	0	1
LeftEye	0	0	0	0	0	0	1
RightEye	0	0	0	0	0	0	1
LeftShoulder	0	0	0	0	0	0	1
LeftArm	0	0	0	0	0	0	1
LeftForeArm	0	0	0	0	0	0	1
LeftHand	0	0	0	0	0	0	1
LeftHandThumb1	0	0	0	0	0	0	1
LeftHandThumb2	0	0	0	0	0	0	1
LeftHandThumb3	0	0	0	0	0	0	1
LeftHandThumb4	0	0	0	0	0	0	1
LeftHandIndex1	0	0	0	0	0	0	1
LeftHandIndex2	0	0	0	0	0	0	1
LeftHandIndex3	0	0	0	0	0	0	1
LeftHandIndex4	0	0	0	0	0	0	1
LeftHandMiddle1	0	0	0	0	0	0	1
LeftHandMiddle2	0	0	0	0	0	0	1
LeftHandMiddle3	0	0	0	0	0	0	1
LeftHandMiddle4	0	0	0	0	0	0	1
LeftHandRing1	0	0	0	0	0	0	1
LeftHandRing2	0	0	0	0	0	0	1
LeftHandRing3	0	0	0	0	0	0	1
LeftHandRing4	0	0	0	0	0	0	1
LeftHandPinky1	0	0	0	0	0	0	1
LeftHandPinky2	0	0	0	0	0	0	1
LeftHandPinky3	0	0	0	0	0	0	1
LeftHandPinky4	0	0	0	0	0	0	1
RightShoulder	0	0	0	0	0	0	1
RightArm	0	0	0	0	0	0	1
RightForeArm	0	0	0	0	0	0	1
RightHand	0	0	0	0	0	0	1
RightHandPinky1	0	0	0	0	0	0	1
RightHandPinky2	0	0	0	0	0	0	1
RightHandPinky3	0	0	0	0	0	0	1
RightHandPinky4	0	0	0	0	0	0	1
RightHandRing1	0	0	0	0	0	0	1
RightHandRing2	0	0	0	0	0	0	1
RightHandRing3	0	0	0	0	0	0	1
RightHandRing4	0	0	0	0	0	0	1
RightHandMiddle1	0	0	0	0	0	0	1
RightHandMiddle2	0	0	0	0	0	0	1
RightHandMiddle3	0	0	0	0	0	0	1
RightHandMiddle4	0	0	0	0	0	0	1
RightHandIndex1	0	0	0	0	0	0	1
RightHandIndex2	0	0	0	0	0	0	1
RightHandIndex3	0	0	0	0	0	0	1
RightHandIndex4	0	0	0	0	0	0	1
RightHandThumb1	0	0	0	0	0	0	1
RightHandThumb2	0	0	0	0	0	0	1
RightHandThumb3	0	0	0	0	0	0	1
RightHandThumb4	0	0	0	0	0	0	1
LeftUpLeg	0	0	0	0	0	0	1
LeftLeg	0	0	0	0	0	0	1
LeftFoot	0	0	0	0	0	0	1
LeftToeBase	0	0	0	0	0	0	1
RightUpLeg	0	0	0	0	0	0	1
RightLeg	0	0	0	0	0	0	1
RightFoot	0	0	0	0	0	0	1
RightToeBase	0	0	0	0	0	0	1
[Hips]
13	50.51642609	1018.785522	876.7338867	0.2408269644	-2.168264389	5.519451141	1.0
14	47.26060486	1020.041016	943.352417	0.9181973934	-0.4608256221	4.331879139	1.0
15	42.70424652	1016.039917	1013.563599	1.003348947	1.822955847	3.009273052	1.0
[Spine]
13	0	101.8159943	1.315000057	3.665440083	-0.1678604335	-0.5054267645	1.0
14	0	101.8159943	1.315000057	3.079768419	-0.818929255	-0.0381773077	1.0
15	0	101.8159943	1.315000057	2.453515053	-1.422890663	0.1256763041	1.0
[Spine1]
13	0	100.8349991	-10.00800037	1.397123694	-0.5020192862	-1.516004443	1.0
14	0	100.8349991	-10.00800037	1.496538758	-1.752939343	-1.034545898	1.0
15	0	100.8349991	-10.00800037	2.061156511	-2.754677773	-0.4547612369	1.0
[Spine2]
13	0	91	-13.73399925	-3.100490808	-0.6275759935	-1.995249033	1.0
14	0	91	-13.73399925	-3.016996622	-1.83491087	-1.45632422	1.0
15	0	91	-13.73399925	-2.458642483	-2.812439442	-0.8631196022	1.0
[Neck]
13	0	166.7169952	-25.16200066	-4.168670177	0.2951944768	-3.339518785	1.0
14	0	166.7169952	-25.16200066	-3.709699154	0.4561442137	-3.028722763	1.0
15	0	166.7169952	-25.16200066	-4.117412567	0.3051407337	-2.508672476	1.0
[Head]
13	0	96.17900085	16.84999847	-1.636440754	0.5981475115	-1.142212152	1.0
14	0	96.17900085	16.84999847	-1.446798205	1.658638239	-1.376636982	1.0
15	0	96.17900085	16.84999847	-1.701032996	1.692734957	-1.200951576	1.0
[LeftEye]
13	30.6760006	64.09500122	92.83599854	0	0	0	1.0
14	30.6760006	64.09500122	92.83599854	0	0	0	1.0
15	30.6760006	64.09500122	92.83599854	0	0	0	1.0
[RightEye]
13	-30.6760006	64.09500122	92.83499908	0	0	0	1.0
14	-30.6760006	64.09500122	92.83499908	0	0	0	1.0
15	-30.6760006	64.09500122	92.83499908	0	0	0	1.0
[LeftShoulder]
13	45.70400238	109.4599991	-26.28000069	8.006694794	-14.09517574	-8.846351624	1.0
14	45.70400238	109.4599991	-26.28000069	8.115221977	-16.68018913	-7.125134468	1.0
15	45.70400238	109.4599991	-26.28000069	8.002005577	-20.20090675	-3.929368258	1.0
[LeftArm]
13	105.923996	-5.24600029	-22.32099915	-0.2768881321	8.555318832	-70.03303528	1.0
14	105.923996	-5.24600029	-22.32099915	2.863739491	4.95132494	-68.1940918	1.0
15	105.923996	-5.24600029	-22.32099915	3.080313921	2.481049299	-66.94179535	1.0
[LeftForeArm]
13	278.414978	-0.0009999999311	0	-8.169826287e-06	-28.01869392	-0.0001897116745	1.0
14	278.414978	-0.0009999999311	0	3.343157289e-07	-31.07296562	-0.0002171803935	1.0
15	278.414978	-0.0009999999311	0	-5.009667802e-06	-35.99858475	-0.0002115053067	1.0
[LeftHand]
13	283.2879944	0	0	36.87020111	-3.944560289	-5.114894867	1.0
14	283.2879944	0	0	33.29441452	-8.43074131	-0.2878808379	1.0
15	283.2879944	0	0	27.53355026	-11.03954506	2.843575954	1.0
[LeftHandThumb1]
13	24.6609993	-15.75	26.8239994	25.95526123	-8.513341904	32.10781097	1.0
14	24.6609993	-15.75	26.8239994	26.25897217	-8.177762032	31.2781105	1.0
15	24.6609993	-15.75	26.8239994	26.61645889	-7.732553482	30.39807129	1.0
[LeftHandThumb2]
13	32.29800034	-18.64699936	18.64699936	-11.14564705	26.08171654	-19.15185165	1.0
14	32.29800034	-18.64699936	18.64699936	-11.16747665	25.21387672	-18.79631615	1.0
15	32.29800034	-18.64699936	18.64699936	-11.37367439	24.20573044	-18.58474159	1.0
[LeftHandThumb3]
13	26.52600098	-15.31499958	15.31499958	7.488499641	-13.37214088	2.723203182	1.0
14	26.52600098	-15.31499958	15.31499958	7.299847126	-14.62151051	5.70969677	1.0
15	26.52600098	-15.31499958	15.31499958	7.13998127	-15.70980167	5.984532356	1.0
[LeftHandThumb4]
13	19.54599953	-11.28499985	11.28499985	0	0	0	1.0
14	19.54599953	-11.28499985	11.28499985	0	0	0	1.0
15	19.54599953	-11.28499985	11.28499985	0	0	0	1.0
[LeftHandIndex1]
13	91.09299469	-5.170999527	22.60099792	8.747066498	2.767965794	-8.307275772	1.0
14	91.09299469	-5.170999527	22.60099792	8.549805641	2.389016151	-4.658752918	1.0
15	91.09299469	-5.170999527	22.60099792	7.894673347	2.446396828	-3.588745594	1.0
[LeftHandIndex2]
13	36.76399994	0	0	-0.4597085714	2.432913542	-16.86164665	1.0
14	36.76399994	0	0	-0.4607047439	2.435067177	-16.88497734	1.0
15	36.76399994	0	0	-0.4576212466	2.42835331	-16.81245041	1.0
[LeftHandIndex3]
13	28.83100128	0	0	-0.03246215731	0.1790502965	-3.891461611	1.0
14	28.83100128	0	0	-0.03261762857	0.1814320385	-3.915136576	1.0
15	28.83100128	0	0	-0.0321431756	0.1741503477	-3.842671871	1.0
[LeftHandIndex4]
13	23.92700005	0	0	0	0	0	1.0
14	23.92700005	0	0	0	0	0	1.0
15	23.92700005	0	0	0	0	0	1.0
[LeftHandMiddle1]
13	95.33399963	0	0	-1.514669418	7.139032364	-15.93181229	1.0
14	95.33399963	0	0	-1.265309811	6.903039932	-13.87228489	1.0
15	95.33399963	0	0	-1.251244545	6.774632931	-13.77200508	1.0
[LeftHandMiddle2]
13	36.98199844	0	0	-1.00803268	3.314390659	-26.89735413	1.0
14	36.98199844	0	0	-1.005303502	3.310648918	-26.85167313	1.0
15	36.98199844	0	0	-1.005346775	3.310718775	-26.8525238	1.0
[LeftHandMiddle3]
13	29.50900078	0	0	-0.2400496602	1.82223928	-15.76993942	1.0
14	29.50900078	0	0	-0.2387278378	1.817857504	-15.72391224	1.0
15	29.50900078	0	0	-0.2387357503	1.817882299	-15.72416592	1.0
[LeftHandMiddle4]
13	28.3390007	0	0	0	0	0	1.0
14	28.3390007	0	0	0	0	0	1.0
15	28.3390007	0	0	0	0	0	1.0
[LeftHandRing1]
13	91.04499817	-0.4390000105	-18.65100098	-3.650575399	6.812402725	-33.47813034	1.0
14	91.04499817	-0.4390000105	-18.65100098	-3.414793491	6.835458279	-31.72371864	1.0
15	91.04499817	-0.4390000105	-18.65100098	-3.398873091	6.904737949	-31.58014107	1.0
[LeftHandRing2]
13	31.54000092	0	0	-0.1790302992	2.0008111	-16.88062096	1.0
14	31.54000092	0	0	-0.1783171445	1.998094797	-16.8523159	1.0
15	31.54000092	0	0	-0.1785254478	1.998916388	-16.86095619	1.0
[LeftHandRing3]
13	29.37700081	0	0	0.03162806854	1.213449717	-12.29234791	1.0
14	29.37700081	0	0	0.03194820508	1.210690498	-12.26445961	1.0
15	29.37700081	0	0	0.03185796365	1.211582899	-12.27338219	1.0
[LeftHandRing4]
13	26.47500038	0	0	0	0	0	1.0
14	26.47500038	0	0	0	0	0	1.0
15	26.47500038	0	0	0	0	0	1.0
[LeftHandPinky1]
13	80.77799988	-4.887000084	-38.06099701	-3.917233944	12.89969635	-30.65260696	1.0
14	80.77799988	-4.887000084	-38.06099701	-3.718583345	12.46294308	-29.23941803	1.0
15	80.77799988	-4.887000084	-38.06099701	-3.716849327	12.29314709	-29.24759102	1.0
[LeftHandPinky2]
13	36	0	0	-0.8761286736	2.568071842	-29.12788391	1.0
14	36	0	0	-0.878352344	2.571590662	-29.16961288	1.0
15	36	0	0	-0.8758552074	2.567626476	-29.12269592	1.0
[LeftHandPinky3]
13	21.14200211	0	0	-0.1051187813	1.527236581	-6.742827892	1.0
14	21.14200211	0	0	-0.1059608757	1.531340837	-6.784478188	1.0
15	21.14200211	0	0	-0.1050099134	1.526735783	-6.737653255	1.0
[LeftHandPinky4]
13	19.75699997	0	0	0	0	0	1.0
14	19.75699997	0	0	0	0	0	1.0
15	19.75699997	0	0	0	0	0	1.0
[RightShoulder]
13	-45.70000076	109.4620056	-26.28000069	-0.3875864446	9.618466377	0.1260648966	1.0
14	-45.70000076	109.4620056	-26.28000069	-0.3385330141	8.765234947	1.412136436	1.0
15	-45.70000076	109.4620056	-26.28000069	-0.3900383413	6.456958771	3.510345936	1.0
[RightArm]
13	-105.9280014	-5.248000145	-22.32099915	8.877194405	-2.308923483	74.62206268	1.0
14	-105.9280014	-5.248000145	-22.32099915	5.616415501	-5.870758057	74.90327454	1.0
15	-105.9280014	-5.248000145	-22.32099915	3.035777807	-10.22704411	73.88652802	1.0
[RightForeArm]
13	-278.414978	0	0	3.911216936e-06	43.95946503	5.193471225e-06	1.0
14	-278.414978	0	0	1.278526634e-05	40.40848923	6.42904979e-06	1.0
15	-278.414978	0	0	2.391418093e-06	37.13014221	-1.160167994e-05	1.0
[RightHand]
13	-283.2879944	0	0.0009999999311	28.36692429	33.20954895	-6.602268219	1.0
14	-283.2879944	0	0.0009999999311	34.424263	32.04681015	-2.675135612	1.0
15	-283.2879944	0	0.0009999999311	38.30164337	27.83827972	0.4548147321	1.0
[RightHandPinky1]
13	-80.76699829	-4.885000229	-38.06000137	-5.539305687	-9.45592308	44.89823532	1.0
14	-80.76699829	-4.885000229	-38.06000137	-5.447167397	-9.681747437	44.04978561	1.0
15	-80.76699829	-4.885000229	-38.06000137	-5.250135422	-9.964445114	42.4018631	1.0
[RightHandPinky2]
13	-36	0	0.0009999999311	-2.212246895	-4.036182404	49.14391327	1.0
14	-36	0	0.0009999999311	-2.216747999	-4.039640427	49.20080185	1.0
15	-36	0	0.0009999999311	-2.232115269	-4.05143261	49.39516449	1.0
[RightHandPinky3]
13	-21.14200211	0	0	-2.056340218	-1.619803071	43.34074402	1.0
14	-21.14200211	0	0	-2.060583353	-1.623569608	43.39742661	1.0
15	-21.14200211	0	0	-2.075096607	-1.636442184	43.5911026	1.0
[RightHandPinky4]
13	-19.75699997	0	0	0	0	0	1.0
14	-19.75699997	0	0	0	0	0	1.0
15	-19.75699997	0	0	0	0	0	1.0
[RightHandRing1]
13	-91.03599548	-0.4390000105	-18.65100098	-4.55705452	-7.869172573	39.70791626	1.0
14	-91.03599548	-0.4390000105	-18.65100098	-4.422747612	-8.03961277	38.67173767	1.0
15	-91.03599548	-0.4390000105	-18.65100098	-4.147947311	-8.223555565	36.59950256	1.0
[RightHandRing2]
13	-31.54000092	0	0	-0.3964464664	-2.661799669	23.90915298	1.0
14	-31.54000092	0	0	-0.3934888542	-2.654393435	23.82857513	1.0
15	-31.54000092	0	0	-0.3934772015	-2.654397011	23.82855988	1.0
[RightHandRing3]
13	-29.37700081	0	0	-0.1965037584	-0.1536138505	20.33115768	1.0
14	-29.37700081	0	0	-0.1944691241	-0.1458591521	20.25063896	1.0
15	-29.37700081	0	0	-0.1944583654	-0.1458460987	20.25047684	1.0
[RightHandRing4]
13	-26.47500038	0	0	0	0	0	1.0
14	-26.47500038	0	0	0	0	0	1.0
15	-26.47500038	0	0	0	0	0	1.0
[RightHandMiddle1]
13	-95.32500458	0	0	-2.10830617	-3.485764503	21.21475601	1.0
14	-95.32500458	0	0	-1.921977043	-3.970640659	19.65367508	1.0
15	-95.32500458	0	0	-1.609990835	-4.346288204	17.03554916	1.0
[RightHandMiddle2]
13	-36.98199844	0	0	-1.762132168	-4.157509804	38.10550308	1.0
14	-36.98199844	0	0	-1.759742737	-4.155296326	38.0733223	1.0
15	-36.98199844	0	0	-1.756079912	-4.151916027	38.02402115	1.0
[RightHandMiddle3]
13	-29.50900078	0	0	-0.8818683028	-3.048740149	31.11301804	1.0
14	-29.50900078	0	0	-0.8802687526	-3.046203136	31.08286858	1.0
15	-29.50900078	0	0	-0.8778096437	-3.042292595	31.03630447	1.0
[RightHandMiddle4]
13	-28.3390007	0	0.0009999999311	0	0	0	1.0
14	-28.3390007	0	0.0009999999311	0	0	0	1.0
15	-28.3390007	0	0.0009999999311	0	0	0	1.0
[RightHandIndex1]
13	-91.08300018	-5.167999744	22.60099792	-0.5356730223	1.51923275	8.95407486	1.0
14	-91.08300018	-5.167999744	22.60099792	-0.4280641377	1.296301842	7.827700615	1.0
15	-91.08300018	-5.167999744	22.60099792	-0.1892827302	1.406522274	5.539912224	1.0
[RightHandIndex2]
13	-36.76399994	0	0	-0.9403854609	-3.282593489	26.48154068	1.0
14	-36.76399994	0	0	-0.9491729736	-3.295371771	26.63419151	1.0
15	-36.76399994	0	0	-0.9675655365	-3.321875095	26.95183754	1.0
[RightHandIndex3]
13	-28.83100128	0	0	-0.3276261687	-0.4788428545	17.16156006	1.0
14	-28.83100128	0	0	-0.3321778476	-0.4934510589	17.31375313	1.0
15	-28.83100128	0	0	-0.34180969	-0.5238080025	17.630476	1.0
[RightHandIndex4]
13	-23.92700005	0	0	0	0	0	1.0
14	-23.92700005	0	0	0	0	0	1.0
15	-23.92700005	0	0	0	0	0	1.0
[RightHandThumb1]
13	-24.64799881	-15.72700024	26.82600021	17.39452744	-2.801443577	-15.12015057	1.0
14	-24.64799881	-15.72700024	26.82600021	17.95254707	-3.279978514	-15.08423328	1.0
15	-24.64799881	-15.72700024	26.82600021	18.60741806	-4.262362003	-15.40956688	1.0
[RightHandThumb2]
13	-32.29800034	-18.64699936	18.64699936	5.345378876	-3.509497643	-15.24040413	1.0
14	-32.29800034	-18.64699936	18.64699936	5.458353043	-2.621934652	-15.49514103	1.0
15	-32.29800034	-18.64699936	18.64699936	5.429590225	-1.06566453	-15.83735275	1.0
[RightHandThumb3]
13	-26.52600098	-15.31399918	15.31399918	-12.63733101	9.578831673	7.039304733	1.0
14	-26.52600098	-15.31399918	15.31399918	-12.57241821	9.257957458	7.154676914	1.0
15	-26.52600098	-15.31399918	15.31399918	-12.49305248	8.864291191	7.296694756	1.0
[RightHandThumb4]
13	-19.54599953	-11.28499985	11.28499985	0	0	0	1.0
14	-19.54599953	-11.28499985	11.28499985	0	0	0	1.0
15	-19.54599953	-11.28499985	11.28499985	0	0	0	1.0
[LeftUpLeg]
13	82.07800293	-67.51699829	-15.99599934	-9.834308624	5.129761219	-9.601820946	1.0
14	82.07800293	-67.51699829	-15.99599934	-5.965803623	7.196192741	-7.61072731	1.0
15	82.07800293	-67.51699829	-15.99599934	-1.754415512	8.960525513	-4.39874506	1.0
[LeftLeg]
13	0	-443.7049866	2.845999956	17.80474091	-2.017186403	-0.9138607979	1.0
14	0	-443.7049866	2.845999956	17.55839539	-5.181979656	-2.183664322	1.0
15	0	-443.7049866	2.845999956	18.12303543	-6.185761452	-2.756430626	1.0
[LeftFoot]
13	0	-444.2789917	-29.8219986	-7.110025883	-0.01180376112	4.699566841	1.0
14	0	-444.2789917	-29.8219986	-9.862639427	-0.5019068122	5.096815109	1.0
15	0	-444.2789917	-29.8219986	-12.59153366	-4.304162025	5.600852489	1.0
[LeftToeBase]
13	0	-87.28699493	107.1060028	-3.963791847	6.674908946e-07	6.996544926e-07	1.0
14	0	-87.28699493	107.1060028	-5.041580677	4.966807978e-07	-8.747404081e-07	1.0
15	0	-87.28699493	107.1060028	-7.175697327	-1.938549588e-07	-1.352869958e-07	1.0
[RightUpLeg]
13	-82.07800293	-67.51699829	-15.99599934	-24.89867401	-5.366908073	-4.512355804	1.0
14	-82.07800293	-67.51699829	-15.99599934	-30.94359398	-4.78180027	-1.83526659	1.0
15	-82.07800293	-67.51699829	-15.99599934	-34.60279083	-6.840909004	1.461483955	1.0
[RightLeg]
13	0	-443.7049866	2.861999989	56.72037506	8.917564392	4.501443386	1.0
14	0	-443.7049866	2.861999989	46.37415314	9.744241714	3.664993763	1.0
15	0	-443.7049866	2.861999989	31.42212677	10.23058319	1.241813421	1.0
[RightFoot]
13	0	-444.2770081	-29.83799934	4.491430759	-15.56838894	4.073202133	1.0
14	0	-444.2770081	-29.83799934	1.749588966	-17.34589577	5.129366875	1.0
15	0	-444.2770081	-29.83799934	0.4151520133	-15.57920456	6.277415276	1.0
[RightToeBase]
13	0	-87.28699493	107.1060028	-0.7386876941	-0.00227162987	-0.3960223794	1.0
14	0	-87.28699493	107.1060028	-1.445385933	-0.003897468094	-0.6788944006	1.0
15	0	-87.28699493	107.1060028	-3.111181259	-0.002273361664	-0.3960199952	1.0
[EndOfFile]
